<mxfile host="app.diagrams.net" modified="2024-07-09T13:41:34.895Z" agent="Mozilla/5.0 (Macintosh; Intel Mac OS X 10_15_7) AppleWebKit/537.36 (KHTML, like Gecko) Chrome/126.0.0.0 Safari/537.36" etag="0vSDgRfPFbhx-3f_XpW0" version="21.2.2" type="device">
  <diagram name="Page-1" id="AgRzsGoV9aQoBmI57KLv">
    <mxGraphModel dx="706" dy="507" grid="1" gridSize="10" guides="1" tooltips="1" connect="1" arrows="1" fold="1" page="1" pageScale="1" pageWidth="850" pageHeight="1100" math="0" shadow="0">
      <root>
        <mxCell id="0" />
        <mxCell id="1" parent="0" />
        <mxCell id="m3oQaHgyGBxdOyyUX1dw-68" value="" style="rounded=0;whiteSpace=wrap;html=1;" vertex="1" parent="1">
          <mxGeometry x="110" y="70" width="450" height="540" as="geometry" />
        </mxCell>
        <mxCell id="m3oQaHgyGBxdOyyUX1dw-50" value="" style="rounded=0;whiteSpace=wrap;html=1;fillColor=#dae8fc;strokeColor=#6c8ebf;" vertex="1" parent="1">
          <mxGeometry x="120" y="350" width="430" height="250" as="geometry" />
        </mxCell>
        <mxCell id="m3oQaHgyGBxdOyyUX1dw-57" value="" style="group;fillColor=#e51400;fontColor=#ffffff;strokeColor=#B20000;" vertex="1" connectable="0" parent="1">
          <mxGeometry x="305" y="510" width="120" height="80" as="geometry" />
        </mxCell>
        <mxCell id="m3oQaHgyGBxdOyyUX1dw-58" value="Service Mesh&lt;br&gt;Control Plane" style="rounded=0;whiteSpace=wrap;html=1;" vertex="1" parent="m3oQaHgyGBxdOyyUX1dw-57">
          <mxGeometry width="120" height="50" as="geometry" />
        </mxCell>
        <mxCell id="m3oQaHgyGBxdOyyUX1dw-59" value="Certificate Authority" style="rounded=0;whiteSpace=wrap;html=1;" vertex="1" parent="m3oQaHgyGBxdOyyUX1dw-57">
          <mxGeometry y="50" width="120" height="30" as="geometry" />
        </mxCell>
        <mxCell id="m3oQaHgyGBxdOyyUX1dw-60" value="" style="edgeStyle=orthogonalEdgeStyle;rounded=0;orthogonalLoop=1;jettySize=auto;html=1;entryX=0;entryY=0.5;entryDx=0;entryDy=0;" edge="1" parent="1" source="m3oQaHgyGBxdOyyUX1dw-53" target="m3oQaHgyGBxdOyyUX1dw-59">
          <mxGeometry relative="1" as="geometry">
            <mxPoint x="360" y="470" as="targetPoint" />
            <Array as="points">
              <mxPoint x="200" y="575" />
            </Array>
          </mxGeometry>
        </mxCell>
        <mxCell id="m3oQaHgyGBxdOyyUX1dw-61" value="Validate" style="edgeLabel;html=1;align=center;verticalAlign=middle;resizable=0;points=[];" vertex="1" connectable="0" parent="m3oQaHgyGBxdOyyUX1dw-60">
          <mxGeometry x="-0.5667" relative="1" as="geometry">
            <mxPoint as="offset" />
          </mxGeometry>
        </mxCell>
        <mxCell id="m3oQaHgyGBxdOyyUX1dw-62" value="Certiificate" style="endArrow=classic;html=1;rounded=0;" edge="1" parent="1">
          <mxGeometry width="50" height="50" relative="1" as="geometry">
            <mxPoint x="450" y="484" as="sourcePoint" />
            <mxPoint x="240" y="484" as="targetPoint" />
          </mxGeometry>
        </mxCell>
        <mxCell id="m3oQaHgyGBxdOyyUX1dw-63" value="" style="endArrow=classic;html=1;rounded=0;exitX=1;exitY=0.25;exitDx=0;exitDy=0;" edge="1" parent="1">
          <mxGeometry width="50" height="50" relative="1" as="geometry">
            <mxPoint x="240" y="472.875" as="sourcePoint" />
            <mxPoint x="450" y="473" as="targetPoint" />
          </mxGeometry>
        </mxCell>
        <mxCell id="m3oQaHgyGBxdOyyUX1dw-64" value="Hello" style="edgeLabel;html=1;align=center;verticalAlign=middle;resizable=0;points=[];" vertex="1" connectable="0" parent="m3oQaHgyGBxdOyyUX1dw-63">
          <mxGeometry x="-0.0381" y="3" relative="1" as="geometry">
            <mxPoint as="offset" />
          </mxGeometry>
        </mxCell>
        <mxCell id="m3oQaHgyGBxdOyyUX1dw-65" value="" style="endArrow=classic;html=1;rounded=0;exitX=1;exitY=0.25;exitDx=0;exitDy=0;" edge="1" parent="1">
          <mxGeometry width="50" height="50" relative="1" as="geometry">
            <mxPoint x="241" y="498" as="sourcePoint" />
            <mxPoint x="451" y="498" as="targetPoint" />
          </mxGeometry>
        </mxCell>
        <mxCell id="m3oQaHgyGBxdOyyUX1dw-66" value="Encrypted Traffic" style="edgeLabel;html=1;align=center;verticalAlign=middle;resizable=0;points=[];" vertex="1" connectable="0" parent="m3oQaHgyGBxdOyyUX1dw-65">
          <mxGeometry x="-0.0381" y="3" relative="1" as="geometry">
            <mxPoint as="offset" />
          </mxGeometry>
        </mxCell>
        <mxCell id="m3oQaHgyGBxdOyyUX1dw-67" value="&lt;font style=&quot;font-size: 12px;&quot;&gt;Response&lt;/font&gt;" style="text;html=1;align=center;verticalAlign=middle;resizable=0;points=[];autosize=1;strokeColor=none;fillColor=none;" vertex="1" parent="1">
          <mxGeometry x="115" y="350" width="80" height="30" as="geometry" />
        </mxCell>
        <mxCell id="m3oQaHgyGBxdOyyUX1dw-52" value="App 2" style="rounded=0;whiteSpace=wrap;html=1;fillColor=#e1d5e7;strokeColor=#9673a6;" vertex="1" parent="1">
          <mxGeometry x="160" y="380" width="80" height="62.5" as="geometry" />
        </mxCell>
        <mxCell id="m3oQaHgyGBxdOyyUX1dw-53" value="sidecar" style="rounded=0;whiteSpace=wrap;html=1;fillColor=#647687;fontColor=#ffffff;strokeColor=#314354;" vertex="1" parent="1">
          <mxGeometry x="160" y="466.5" width="80" height="37.5" as="geometry" />
        </mxCell>
        <mxCell id="m3oQaHgyGBxdOyyUX1dw-55" value="App 1" style="rounded=0;whiteSpace=wrap;html=1;fillColor=#fff2cc;strokeColor=#d6b656;" vertex="1" parent="1">
          <mxGeometry x="450" y="380" width="80" height="62.5" as="geometry" />
        </mxCell>
        <mxCell id="m3oQaHgyGBxdOyyUX1dw-56" value="sidecar" style="rounded=0;whiteSpace=wrap;html=1;fillColor=#647687;fontColor=#ffffff;strokeColor=#314354;" vertex="1" parent="1">
          <mxGeometry x="450" y="466.5" width="80" height="37.5" as="geometry" />
        </mxCell>
        <mxCell id="m3oQaHgyGBxdOyyUX1dw-69" value="" style="endArrow=classic;html=1;rounded=0;exitX=0.25;exitY=0;exitDx=0;exitDy=0;entryX=0.25;entryY=1;entryDx=0;entryDy=0;" edge="1" parent="1">
          <mxGeometry width="50" height="50" relative="1" as="geometry">
            <mxPoint x="184" y="466.5" as="sourcePoint" />
            <mxPoint x="184" y="442.5" as="targetPoint" />
            <Array as="points">
              <mxPoint x="184" y="450" />
            </Array>
          </mxGeometry>
        </mxCell>
        <mxCell id="m3oQaHgyGBxdOyyUX1dw-71" value="" style="endArrow=classic;html=1;rounded=0;exitX=0.675;exitY=1.008;exitDx=0;exitDy=0;exitPerimeter=0;entryX=0.675;entryY=0.013;entryDx=0;entryDy=0;entryPerimeter=0;" edge="1" parent="1">
          <mxGeometry width="50" height="50" relative="1" as="geometry">
            <mxPoint x="219" y="443" as="sourcePoint" />
            <mxPoint x="219" y="466.98749999999995" as="targetPoint" />
          </mxGeometry>
        </mxCell>
        <mxCell id="m3oQaHgyGBxdOyyUX1dw-72" value="" style="endArrow=classic;html=1;rounded=0;exitX=0.25;exitY=0;exitDx=0;exitDy=0;entryX=0.25;entryY=1;entryDx=0;entryDy=0;" edge="1" parent="1">
          <mxGeometry width="50" height="50" relative="1" as="geometry">
            <mxPoint x="473" y="466.5" as="sourcePoint" />
            <mxPoint x="473" y="442.5" as="targetPoint" />
          </mxGeometry>
        </mxCell>
        <mxCell id="m3oQaHgyGBxdOyyUX1dw-73" value="" style="endArrow=classic;html=1;rounded=0;exitX=0.75;exitY=1;exitDx=0;exitDy=0;entryX=0.75;entryY=0;entryDx=0;entryDy=0;" edge="1" parent="1" source="m3oQaHgyGBxdOyyUX1dw-55" target="m3oQaHgyGBxdOyyUX1dw-56">
          <mxGeometry width="50" height="50" relative="1" as="geometry">
            <mxPoint x="224" y="453" as="sourcePoint" />
            <mxPoint x="224" y="477" as="targetPoint" />
          </mxGeometry>
        </mxCell>
        <mxCell id="m3oQaHgyGBxdOyyUX1dw-74" value="" style="rounded=0;whiteSpace=wrap;html=1;fillColor=#d5e8d4;strokeColor=#82b366;" vertex="1" parent="1">
          <mxGeometry x="119.5" y="80" width="430" height="250" as="geometry" />
        </mxCell>
        <mxCell id="m3oQaHgyGBxdOyyUX1dw-75" value="" style="group" vertex="1" connectable="0" parent="1">
          <mxGeometry x="304.5" y="240" width="120" height="80" as="geometry" />
        </mxCell>
        <mxCell id="m3oQaHgyGBxdOyyUX1dw-76" value="Service Mesh&lt;br&gt;Control Plane" style="rounded=0;whiteSpace=wrap;html=1;" vertex="1" parent="m3oQaHgyGBxdOyyUX1dw-75">
          <mxGeometry width="120" height="50" as="geometry" />
        </mxCell>
        <mxCell id="m3oQaHgyGBxdOyyUX1dw-77" value="Certificate Authority" style="rounded=0;whiteSpace=wrap;html=1;" vertex="1" parent="m3oQaHgyGBxdOyyUX1dw-75">
          <mxGeometry y="50" width="120" height="30" as="geometry" />
        </mxCell>
        <mxCell id="m3oQaHgyGBxdOyyUX1dw-78" value="" style="edgeStyle=orthogonalEdgeStyle;rounded=0;orthogonalLoop=1;jettySize=auto;html=1;entryX=0;entryY=0.5;entryDx=0;entryDy=0;" edge="1" parent="1" source="m3oQaHgyGBxdOyyUX1dw-87" target="m3oQaHgyGBxdOyyUX1dw-77">
          <mxGeometry relative="1" as="geometry">
            <mxPoint x="359.5" y="200" as="targetPoint" />
            <Array as="points">
              <mxPoint x="199.5" y="305" />
            </Array>
          </mxGeometry>
        </mxCell>
        <mxCell id="m3oQaHgyGBxdOyyUX1dw-79" value="Validate" style="edgeLabel;html=1;align=center;verticalAlign=middle;resizable=0;points=[];" vertex="1" connectable="0" parent="m3oQaHgyGBxdOyyUX1dw-78">
          <mxGeometry x="-0.5667" relative="1" as="geometry">
            <mxPoint y="-1" as="offset" />
          </mxGeometry>
        </mxCell>
        <mxCell id="m3oQaHgyGBxdOyyUX1dw-80" value="Certiificate" style="endArrow=classic;html=1;rounded=0;" edge="1" parent="1">
          <mxGeometry width="50" height="50" relative="1" as="geometry">
            <mxPoint x="449.5" y="215" as="sourcePoint" />
            <mxPoint x="239.5" y="215" as="targetPoint" />
          </mxGeometry>
        </mxCell>
        <mxCell id="m3oQaHgyGBxdOyyUX1dw-81" value="" style="endArrow=classic;html=1;rounded=0;exitX=1;exitY=0.25;exitDx=0;exitDy=0;" edge="1" parent="1">
          <mxGeometry width="50" height="50" relative="1" as="geometry">
            <mxPoint x="239.5" y="202.875" as="sourcePoint" />
            <mxPoint x="449.5" y="203" as="targetPoint" />
          </mxGeometry>
        </mxCell>
        <mxCell id="m3oQaHgyGBxdOyyUX1dw-82" value="Hello" style="edgeLabel;html=1;align=center;verticalAlign=middle;resizable=0;points=[];" vertex="1" connectable="0" parent="m3oQaHgyGBxdOyyUX1dw-81">
          <mxGeometry x="-0.0381" y="3" relative="1" as="geometry">
            <mxPoint as="offset" />
          </mxGeometry>
        </mxCell>
        <mxCell id="m3oQaHgyGBxdOyyUX1dw-83" value="" style="endArrow=classic;html=1;rounded=0;exitX=1;exitY=0.25;exitDx=0;exitDy=0;" edge="1" parent="1">
          <mxGeometry width="50" height="50" relative="1" as="geometry">
            <mxPoint x="240.5" y="228" as="sourcePoint" />
            <mxPoint x="450.5" y="228" as="targetPoint" />
          </mxGeometry>
        </mxCell>
        <mxCell id="m3oQaHgyGBxdOyyUX1dw-84" value="Encrypted Traffic" style="edgeLabel;html=1;align=center;verticalAlign=middle;resizable=0;points=[];" vertex="1" connectable="0" parent="m3oQaHgyGBxdOyyUX1dw-83">
          <mxGeometry x="-0.0381" y="3" relative="1" as="geometry">
            <mxPoint as="offset" />
          </mxGeometry>
        </mxCell>
        <mxCell id="m3oQaHgyGBxdOyyUX1dw-85" value="&lt;font style=&quot;font-size: 12px;&quot;&gt;Request&lt;/font&gt;" style="text;html=1;align=center;verticalAlign=middle;resizable=0;points=[];autosize=1;strokeColor=none;fillColor=none;" vertex="1" parent="1">
          <mxGeometry x="119.5" y="80" width="70" height="30" as="geometry" />
        </mxCell>
        <mxCell id="m3oQaHgyGBxdOyyUX1dw-86" value="App 1" style="rounded=0;whiteSpace=wrap;html=1;fillColor=#fff2cc;strokeColor=#d6b656;" vertex="1" parent="1">
          <mxGeometry x="159.5" y="110" width="80" height="62.5" as="geometry" />
        </mxCell>
        <mxCell id="m3oQaHgyGBxdOyyUX1dw-87" value="sidecar" style="rounded=0;whiteSpace=wrap;html=1;fillColor=#647687;fontColor=#ffffff;strokeColor=#314354;" vertex="1" parent="1">
          <mxGeometry x="159.5" y="196.5" width="80" height="37.5" as="geometry" />
        </mxCell>
        <mxCell id="m3oQaHgyGBxdOyyUX1dw-88" value="App 2" style="rounded=0;whiteSpace=wrap;html=1;fillColor=#e1d5e7;strokeColor=#9673a6;" vertex="1" parent="1">
          <mxGeometry x="449.5" y="110" width="80" height="62.5" as="geometry" />
        </mxCell>
        <mxCell id="m3oQaHgyGBxdOyyUX1dw-89" value="sidecar" style="rounded=0;whiteSpace=wrap;html=1;fillColor=#647687;fontColor=#ffffff;strokeColor=#314354;" vertex="1" parent="1">
          <mxGeometry x="449.5" y="196.5" width="80" height="37.5" as="geometry" />
        </mxCell>
        <mxCell id="m3oQaHgyGBxdOyyUX1dw-90" value="" style="endArrow=classic;html=1;rounded=0;exitX=0.25;exitY=0;exitDx=0;exitDy=0;entryX=0.25;entryY=1;entryDx=0;entryDy=0;" edge="1" parent="1">
          <mxGeometry width="50" height="50" relative="1" as="geometry">
            <mxPoint x="183.5" y="196.5" as="sourcePoint" />
            <mxPoint x="183.5" y="172.5" as="targetPoint" />
            <Array as="points">
              <mxPoint x="183.5" y="180" />
            </Array>
          </mxGeometry>
        </mxCell>
        <mxCell id="m3oQaHgyGBxdOyyUX1dw-91" value="" style="endArrow=classic;html=1;rounded=0;exitX=0.675;exitY=1.008;exitDx=0;exitDy=0;exitPerimeter=0;entryX=0.675;entryY=0.013;entryDx=0;entryDy=0;entryPerimeter=0;" edge="1" parent="1">
          <mxGeometry width="50" height="50" relative="1" as="geometry">
            <mxPoint x="218.5" y="173" as="sourcePoint" />
            <mxPoint x="218.5" y="196.98749999999995" as="targetPoint" />
          </mxGeometry>
        </mxCell>
        <mxCell id="m3oQaHgyGBxdOyyUX1dw-92" value="" style="endArrow=classic;html=1;rounded=0;exitX=0.25;exitY=0;exitDx=0;exitDy=0;entryX=0.25;entryY=1;entryDx=0;entryDy=0;" edge="1" parent="1">
          <mxGeometry width="50" height="50" relative="1" as="geometry">
            <mxPoint x="472.5" y="196.5" as="sourcePoint" />
            <mxPoint x="472.5" y="172.5" as="targetPoint" />
          </mxGeometry>
        </mxCell>
        <mxCell id="m3oQaHgyGBxdOyyUX1dw-93" value="" style="endArrow=classic;html=1;rounded=0;exitX=0.75;exitY=1;exitDx=0;exitDy=0;entryX=0.75;entryY=0;entryDx=0;entryDy=0;" edge="1" parent="1" source="m3oQaHgyGBxdOyyUX1dw-88" target="m3oQaHgyGBxdOyyUX1dw-89">
          <mxGeometry width="50" height="50" relative="1" as="geometry">
            <mxPoint x="223.5" y="183" as="sourcePoint" />
            <mxPoint x="223.5" y="207" as="targetPoint" />
          </mxGeometry>
        </mxCell>
      </root>
    </mxGraphModel>
  </diagram>
</mxfile>
